<svg xmlns="http://www.w3.org/2000/svg" viewBox="0 0 38.41 36.26">
    <g id="Layer_2" data-name="Layer 2">
        <g id="PRINT">
            <path
                d="M36.38,11.05l-.07,0L30,14.74h0l-2.81,1.63-5.72,3.29-.67.39a3.52,3.52,0,0,0-1.34,4.72,3.54,3.54,0,0,0,4.85,1.36l.52-.31,1.07,2a3.39,3.39,0,0,1-1.36,4.61l-6.13,3.33a4,4,0,0,1-6-3.54V22.67a3.12,3.12,0,0,0,0-.62V14.66a3.51,3.51,0,0,0-7,0v.88h-2A3.39,3.39,0,0,1,0,12.15v-7A4,4,0,0,1,6,1.61l4.7,2.56,1.73.94,2,1.11,6.41,3.51h0a3.51,3.51,0,0,0,3.64-6l1.28-2.09A3.38,3.38,0,0,1,30.42.5l6,3.64A4,4,0,0,1,36.38,11.05Z"
                fill="##000" />
            <path
                d="M8.94,24.1a2.05,2.05,0,0,1-2-2.05V14.66a2,2,0,0,1,4.09,0v7.39A2,2,0,0,1,8.94,24.1Z"
                fill="##000" />
            <path
                d="M22.51,8.68a2,2,0,0,1-1-.25l-6.41-3.5a2,2,0,0,1,1-3.84,2.07,2.07,0,0,1,1,.25L23.5,4.85a2,2,0,0,1,.77,2.83A2,2,0,0,1,22.51,8.68Z"
                fill="##000" />
            <path
                d="M22.52,25.14a2,2,0,0,1-1-3.81l6.4-3.69a2,2,0,0,1,1-.27,2,2,0,0,1,1,3.81l-6.4,3.69A2,2,0,0,1,22.52,25.14Z"
                fill="##000" />
        </g>
    </g>
</svg>